<svg width="100%" height="100%" viewBox="0 0 96 96" fill="none" xmlns="http://www.w3.org/2000/svg">
<path fill-rule="evenodd" clip-rule="evenodd" d="M58.5685 24.6271C67.9411 33.9997 67.9411 49.1956 58.5685 58.5682C49.196 67.9408 34 67.9408 24.6274 58.5682C15.2548 49.1956 15.2548 33.9997 24.6274 24.6271C34 15.2545 49.196 15.2545 58.5685 24.6271ZM62.7607 59.9336C72.311 48.9339 71.8564 32.2581 61.397 21.7987C50.4623 10.864 32.7337 10.864 21.799 21.7987C10.8643 32.7333 10.8643 50.462 21.799 61.3966C32.2579 71.8555 48.9323 72.3106 59.9321 62.7619L71.2965 74.1264C72.0776 74.9074 73.3439 74.9074 74.125 74.1264C74.906 73.3453 74.906 72.079 74.125 71.2979L62.7607 59.9336Z" fill="#CBD3E1"/>
<rect x="31.376" y="37.375" width="3" height="4" rx="1.5" fill="#CBD3E1"/>
<rect x="47.376" y="37.375" width="3" height="4" rx="1.5" fill="#CBD3E1"/>
<rect x="38.376" y="46.375" width="6" height="2" fill="#CBD3E1"/>
</svg>
